PathFileType	4	(X/Y/Z)	C:\Users\WrightLab\Desktop\Jo\P2_Trial31.trc
DataRate	CameraRate	NumFrames	NumMarkers	Units	OrigDataRate	OrigDataStartFrame	OrigNumFrames
100.00	100.00	       6	19	mm	100.00	305	       812
Frame#	Time	Headset_Front			Headset_Back			Headset_Left			Headset_Right			Left_Shoulder			Right_Shoulder			Sternum			C7			Left Elbow			Right Elbow			Left Wrist			Right Wrist			Left ASIS			Right ASIS			S2			Left Knee			Right Knee			Left Ankle			Right Ankle			
		X1	Y1	Z1	X2	Y2	Z2	X3	Y3	Z3	X4	Y4	Z4	X5	Y5	Z5	X6	Y6	Z6	X7	Y7	Z7	X8	Y8	Z8	X9	Y9	Z9	X10	Y10	Z10	X11	Y11	Z11	X12	Y12	Z12	X13	Y13	Z13	X14	Y14	Z14	X15	Y15	Z15	X16	Y16	Z16	X17	Y17	Z17	X18	Y18	Z18	X19	Y19	Z19	

305	3.040	-605.67334	1457.58655	39.53957	-659.39697	1678.77686	-165.12029	-531.41498	1572.79407	-112.87523	-725.32648	1539.00146	2.29373	-522.14410	1438.06030	-203.04968	-841.99695	1423.83459	-137.95732	-668.09583	1312.86707	-109.59412	-716.95532	1419.70471	-278.15335	-364.31448	1120.73450	-152.76166	-941.16406	1094.87659	-162.14369	-287.48257	950.20575	-31.50934	-973.59668	850.27161	-91.71035	-599.84546	1022.89941	-77.09795	-732.18274	1002.98145	-51.35569	-696.56866	926.61841	-319.22263	-533.64667	429.28790	-238.36545	-853.58282	546.94531	-22.78204	-551.08521	69.60893	-281.83212	-895.80261	146.54143	128.48311	
306	3.050	-603.32465	1457.25769	49.62645	-658.04785	1677.62598	-156.06081	-529.83911	1572.21228	-109.48953	-722.97748	1538.22229	12.15306	-521.75519	1436.44226	-194.40907	-841.69568	1423.44312	-126.27081	-666.86957	1312.35938	-100.75320	-717.68091	1418.53674	-267.84918	-363.58374	1119.44470	-144.25002	-941.05566	1094.32690	-149.46046	-286.84341	950.94751	-23.35310	-973.00653	849.51617	-79.10155	-599.44244	1020.46448	-69.66898	-731.08191	1002.39185	-39.83554	-699.11896	925.56226	-309.61981	-536.38428	427.91702	-233.55902	-850.01813	541.48718	-23.07611	-552.80786	68.75068	-283.40491	-888.34753	150.74847	152.32863	
307	3.060	-600.70679	1456.38257	58.03581	-656.78528	1676.31653	-147.38190	-528.25800	1569.74304	-98.08097	-720.58026	1538.15491	21.32759	-521.68665	1434.78186	-186.47168	-840.77869	1422.94250	-114.84651	-666.12347	1311.01746	-90.73706	-718.35638	1417.13464	-257.93521	-363.16599	1118.29553	-136.59154	-940.73859	1093.66565	-136.44734	-285.98257	949.89001	-14.25265	-972.13452	848.86469	-67.06467	-597.15601	1020.04816	-59.65530	-729.13751	1000.19940	-30.44311	-701.28876	923.83795	-299.04477	-536.92456	427.06107	-227.32993	-845.68463	536.90253	-22.91263	-554.89258	68.78801	-286.29413	-879.89600	160.96992	183.95010	
308	3.070	-597.14783	1455.61450	65.99355	-655.61633	1674.98425	-138.89595	-527.04187	1568.77075	-93.10803	-717.51038	1537.00720	31.63327	-521.41418	1433.74414	-177.70134	-840.14771	1422.20447	-102.87044	-665.60718	1310.06372	-79.71587	-719.00323	1416.27930	-247.85352	-363.32309	1115.88574	-129.46928	-940.35144	1093.10291	-123.20366	-286.20425	948.99115	-7.46050	-971.25867	848.40363	-54.54553	-596.08923	1016.69995	-54.86753	-727.27222	997.85992	-20.18438	-703.07471	922.59705	-288.90677	-540.41455	425.69794	-222.38783	-842.36707	535.68555	-21.88137	-556.77423	68.77802	-288.40903	-872.23584	168.36906	204.52249	
309	3.080	-594.00385	1454.92786	76.49915	-654.42828	1673.55164	-130.31679	-525.61877	1567.10742	-85.55103	-715.06470	1536.90515	41.88590	-521.14154	1431.93738	-169.03220	-839.00049	1421.31946	-91.25186	-664.78424	1308.79211	-70.11111	-719.47430	1415.13281	-237.64272	-362.15744	1114.89636	-121.88093	-939.84277	1092.54102	-110.15510	-285.82669	949.94830	0.49940	-970.67938	847.36713	-41.75669	-595.05566	1015.02161	-45.02627	-725.47058	998.32959	-9.54943	-704.85681	921.32025	-278.04288	-541.79572	424.95462	-215.88646	-837.61835	535.02765	-19.36003	-558.32770	69.36100	-290.11688	-864.70392	177.43430	221.31766	
310	3.090	-590.75757	1454.29272	85.27856	-653.83862	1672.93665	-121.96931	-524.09460	1564.61133	-74.42341	-711.59528	1536.24207	52.30143	-521.43884	1430.55334	-161.19293	-837.77936	1420.81128	-79.59764	-663.64166	1307.95923	-60.61819	-720.45203	1414.19653	-227.51880	-362.87961	1112.93311	-115.54220	-939.46600	1091.80994	-96.98337	-284.57980	947.87531	7.03467	-969.46527	846.83911	-29.20908	-594.04633	1014.11432	-32.22488	-724.90082	996.02783	0.58128	-706.50165	920.16510	-267.19379	-544.44116	423.70575	-209.49173	-833.23187	536.63733	-14.87536	-559.77802	70.59422	-291.20789	-856.69440	184.18536	239.14235	
